<svg width="140" height="37" viewBox="0 0 140 37" fill="none" xmlns="http://www.w3.org/2000/svg"><g clip-path="url(#a)"><path d="m9 10 2.1 6.5H18l-5.6 4 2.2 6.5L9 23l-5.6 4 2.2-6.5-5.6-4h6.9L9 10Z" fill="#83B3D3"/></g><g clip-path="url(#b)"><path d="m33 10 2.1 6.5H42l-5.6 4 2.2 6.5-5.6-4-5.6 4 2.2-6.5-5.6-4h6.9L33 10Z" fill="#83B3D3"/></g><g clip-path="url(#c)"><path d="m57 10 2.1 6.5H66l-5.6 4 2.2 6.5-5.6-4-5.6 4 2.2-6.5-5.6-4h6.9L57 10Z" fill="#83B3D3"/></g><g clip-path="url(#d)"><path d="m81 10 2.1 6.5H90l-5.6 4 2.2 6.5-5.6-4-5.6 4 2.2-6.5-5.6-4h6.9L81 10Z" fill="#83B3D3"/></g><g clip-path="url(#e)"><path d="m105 10 2.1 6.5h6.9l-5.6 4 2.2 6.5-5.6-4-5.6 4 2.2-6.5-5.6-4h6.9L105 10Z" fill="#83B3D3"/></g><defs><clipPath id="a"><rect width="18" height="17" fill="#fff" transform="translate(0 10)"/></clipPath><clipPath id="b"><rect width="18" height="17" fill="#fff" transform="translate(24 10)"/></clipPath><clipPath id="c"><rect width="18" height="17" fill="#fff" transform="translate(48 10)"/></clipPath><clipPath id="d"><rect width="18" height="17" fill="#fff" transform="translate(72 10)"/></clipPath><clipPath id="e"><rect width="18" height="17" fill="#fff" transform="translate(96 10)"/></clipPath></defs></svg>